<svg width="21" height="21" viewBox="0 0 21 21" fill="none" xmlns="http://www.w3.org/2000/svg">
<g id="ic:round-tiktok">
<path id="Vector" d="M14.2299 5.35C13.6603 4.69969 13.3464 3.86453 13.3466 3H10.7716V13.3333C10.7518 13.8925 10.5157 14.4222 10.1131 14.8108C9.7105 15.1994 9.17282 15.4166 8.61328 15.4167C7.42995 15.4167 6.44661 14.45 6.44661 13.25C6.44661 11.8167 7.82995 10.7417 9.25495 11.1833V8.55C6.37995 8.16667 3.86328 10.4 3.86328 13.25C3.86328 16.025 6.16328 18 8.60495 18C11.2216 18 13.3466 15.875 13.3466 13.25V8.00833C14.3908 8.75821 15.6444 9.16054 16.9299 9.15833V6.58333C16.9299 6.58333 15.3633 6.65833 14.2299 5.35Z" fill="white"/>
</g>
</svg>
