<svg width="21" height="21" viewBox="0 0 21 21" fill="none" xmlns="http://www.w3.org/2000/svg">
<g id="mdi:twitter">
<path id="Vector" d="M19.113 5.50004C18.4714 5.79171 17.7797 5.98337 17.063 6.07504C17.7964 5.63337 18.363 4.93337 18.6297 4.09171C17.938 4.50837 17.1714 4.80004 16.363 4.96671C15.7047 4.25004 14.7797 3.83337 13.7297 3.83337C11.7714 3.83337 10.1714 5.43337 10.1714 7.40837C10.1714 7.69171 10.2047 7.96671 10.263 8.22504C7.29635 8.07504 4.65469 6.65004 2.89635 4.49171C2.58802 5.01671 2.41302 5.63337 2.41302 6.28337C2.41302 7.52504 3.03802 8.62504 4.00469 9.25004C3.41302 9.25004 2.86302 9.08337 2.37969 8.83337V8.85837C2.37969 10.5917 3.61302 12.0417 5.24635 12.3667C4.72196 12.5102 4.17143 12.5302 3.63802 12.425C3.86436 13.1354 4.30764 13.757 4.90553 14.2025C5.50343 14.6479 6.22589 14.8948 6.97135 14.9084C5.70771 15.9087 4.14135 16.4495 2.52969 16.4417C2.24635 16.4417 1.96302 16.425 1.67969 16.3917C3.26302 17.4084 5.14635 18 7.16302 18C13.7297 18 17.338 12.55 17.338 7.82504C17.338 7.66671 17.338 7.51671 17.3297 7.35837C18.0297 6.85837 18.6297 6.22504 19.113 5.50004Z" fill="white"/>
</g>
</svg>
