<svg width="25" height="21" viewBox="0 0 25 21" fill="none" xmlns="http://www.w3.org/2000/svg">
<g id="mingcute:medium-fill" clip-path="url(#clip0_836_1867)">
<g id="Group">
<path id="Vector" d="M7.96699 5.08337C9.63786 5.08337 11.2403 5.65406 12.4218 6.66988C13.6032 7.6857 14.267 9.06345 14.267 10.5C14.267 11.9366 13.6032 13.3144 12.4218 14.3302C11.2403 15.346 9.63786 15.9167 7.96699 15.9167C6.29613 15.9167 4.6937 15.346 3.51222 14.3302C2.33074 13.3144 1.66699 11.9366 1.66699 10.5C1.66699 9.06345 2.33074 7.6857 3.51222 6.66988C4.6937 5.65406 6.29613 5.08337 7.96699 5.08337ZM17.417 5.98615C18.992 5.98615 20.042 8.00747 20.042 10.5C20.042 12.9926 18.992 15.0139 17.417 15.0139C15.842 15.0139 14.792 12.9926 14.792 10.5C14.792 8.00747 15.842 5.98615 17.417 5.98615ZM21.617 6.43754C22.016 6.43754 22.3646 7.18414 22.541 8.46518L22.5903 8.86511L22.6103 9.07726L22.6418 9.52324L22.6523 9.75705L22.6649 10.2455L22.667 10.5L22.6649 10.7546L22.6523 11.243L22.6418 11.4777L22.6103 11.9228L22.5893 12.135L22.542 12.5349C22.3646 13.8168 22.017 14.5625 21.617 14.5625C21.218 14.5625 20.8694 13.8159 20.693 12.5349L20.6436 12.135C20.6364 12.0643 20.6298 11.9936 20.6237 11.9228L20.5922 11.4768C20.5881 11.3989 20.5846 11.321 20.5817 11.243L20.5691 10.7546V10.2455L20.5817 9.75705L20.5922 9.52233L20.6237 9.07726L20.6447 8.86511L20.6919 8.46518C20.8694 7.18324 21.2169 6.43754 21.617 6.43754Z" fill="white"/>
</g>
</g>
<defs>
<clipPath id="clip0_836_1867">
<rect width="24" height="20" fill="white" transform="translate(0.396484 0.5)"/>
</clipPath>
</defs>
</svg>
