<svg width="21" height="21" viewBox="0 0 21 21" fill="none" xmlns="http://www.w3.org/2000/svg">
<g id="ri:instagram-fill">
<path id="Vector" d="M11.1675 3.00092C11.7148 2.99882 12.262 3.00432 12.8092 3.01742L12.9547 3.02267C13.1226 3.02867 13.2884 3.03617 13.4886 3.04517C14.2866 3.08267 14.8311 3.20867 15.3088 3.39391C15.8038 3.5844 16.2207 3.84239 16.6377 4.25938C17.019 4.63407 17.314 5.08731 17.5024 5.58758C17.6877 6.06532 17.8137 6.61055 17.8512 7.40852C17.8602 7.60802 17.8676 7.77451 17.8736 7.9425L17.8781 8.088C17.8915 8.63488 17.8972 9.18191 17.8954 9.72894L17.8961 10.2884V11.2709C17.898 11.8182 17.8922 12.3655 17.8789 12.9126L17.8744 13.0581C17.8684 13.2261 17.8609 13.3918 17.8519 13.5921C17.8144 14.39 17.6869 14.9345 17.5024 15.4123C17.3147 15.9131 17.0195 16.3667 16.6377 16.7412C16.2627 17.1224 15.8092 17.4175 15.3088 17.6059C14.8311 17.7912 14.2866 17.9172 13.4886 17.9547C13.2884 17.9637 13.1226 17.9712 12.9547 17.9772L12.8092 17.9817C12.262 17.995 11.7148 18.0007 11.1675 17.9989L10.608 17.9997H9.62632C9.07905 18.0015 8.53177 17.9958 7.98466 17.9824L7.83916 17.9779C7.66113 17.9715 7.48314 17.964 7.30519 17.9554C6.50723 17.9179 5.96276 17.7904 5.48428 17.6059C4.98382 17.4179 4.53051 17.1228 4.1561 16.7412C3.77441 16.3664 3.47906 15.9129 3.29065 15.4123C3.10541 14.9345 2.97941 14.39 2.94191 13.5921C2.93356 13.4141 2.92606 13.2361 2.91942 13.0581L2.91567 12.9126C2.90184 12.3655 2.89559 11.8182 2.89692 11.2709V9.72894C2.89482 9.18191 2.90032 8.63488 2.91342 8.088L2.91867 7.9425C2.92467 7.77451 2.93217 7.60802 2.94116 7.40852C2.97866 6.6098 3.10466 6.06607 3.2899 5.58758C3.47842 5.08707 3.77435 4.63395 4.15685 4.26013C4.531 3.87821 4.98403 3.58258 5.48428 3.39391C5.96276 3.20867 6.50648 3.08267 7.30519 3.04517L7.83916 3.02267L7.98466 3.01892C8.53152 3.0051 9.07854 2.99885 9.62557 3.00017L11.1675 3.00092ZM10.3965 6.7508C9.89969 6.74377 9.4064 6.83556 8.94534 7.02084C8.48428 7.20611 8.06464 7.48118 7.7108 7.83005C7.35697 8.17892 7.076 8.59464 6.88423 9.05304C6.69245 9.51144 6.5937 10.0034 6.5937 10.5003C6.5937 10.9972 6.69245 11.4891 6.88423 11.9475C7.076 12.406 7.35697 12.8217 7.7108 13.1705C8.06464 13.5194 8.48428 13.7945 8.94534 13.9797C9.4064 14.165 9.89969 14.2568 10.3965 14.2498C11.391 14.2498 12.3448 13.8547 13.048 13.1515C13.7513 12.4482 14.1463 11.4944 14.1463 10.4999C14.1463 9.50539 13.7513 8.55159 13.048 7.84836C12.3448 7.14512 11.391 6.7508 10.3965 6.7508ZM10.3965 8.25074C10.6954 8.24524 10.9924 8.29934 11.2701 8.40989C11.5478 8.52045 11.8007 8.68524 12.014 8.89463C12.2274 9.10403 12.3968 9.35383 12.5125 9.62945C12.6282 9.90508 12.6878 10.201 12.6879 10.4999C12.6879 10.7988 12.6284 11.0948 12.5128 11.3704C12.3972 11.6461 12.2278 11.8959 12.0146 12.1054C11.8013 12.3149 11.5485 12.4798 11.2708 12.5904C10.9931 12.701 10.6961 12.7552 10.3973 12.7498C9.80058 12.7498 9.22831 12.5128 8.80637 12.0909C8.38444 11.6689 8.1474 11.0966 8.1474 10.4999C8.1474 9.9032 8.38444 9.33092 8.80637 8.90898C9.22831 8.48704 9.80058 8.24999 10.3973 8.24999L10.3965 8.25074ZM14.3338 5.62583C14.0919 5.63552 13.8631 5.73844 13.6953 5.91305C13.5276 6.08766 13.4339 6.32041 13.4339 6.56255C13.4339 6.80469 13.5276 7.03744 13.6953 7.21205C13.8631 7.38666 14.0919 7.48959 14.3338 7.49927C14.5825 7.49927 14.8209 7.4005 14.9967 7.22469C15.1725 7.04888 15.2713 6.81043 15.2713 6.5618C15.2713 6.31317 15.1725 6.07472 14.9967 5.89891C14.8209 5.7231 14.5825 5.62433 14.3338 5.62433V5.62583Z" fill="white"/>
</g>
</svg>
