<svg width="21" height="21" viewBox="0 0 21 21" fill="none" xmlns="http://www.w3.org/2000/svg">
<g id="ri:linkedin-fill">
<path id="Vector" d="M6.18001 4.66665C6.17979 5.10867 6.00399 5.53251 5.69127 5.84491C5.37855 6.15732 4.95454 6.3327 4.51251 6.33248C4.07049 6.33226 3.64665 6.15645 3.33425 5.84373C3.02184 5.53102 2.84646 5.10701 2.84668 4.66498C2.8469 4.22295 3.02271 3.79912 3.33542 3.48671C3.64814 3.17431 4.07215 2.99892 4.51418 2.99915C4.95621 2.99937 5.38004 3.17517 5.69245 3.48789C6.00485 3.80061 6.18023 4.22462 6.18001 4.66665ZM6.23001 7.56665H2.89668V18H6.23001V7.56665ZM11.4967 7.56665H8.18001V18H11.4633V12.525C11.4633 9.47498 15.4383 9.19165 15.4383 12.525V18H18.73V11.3916C18.73 6.24998 12.8467 6.44165 11.4633 8.96665L11.4967 7.56665Z" fill="white"/>
</g>
</svg>
